<?xml version="1.0" standalone="no"?>
<!DOCTYPE svg PUBLIC "-//W3C//DTD SVG 20010904//EN"
 "http://www.w3.org/TR/2001/REC-SVG-20010904/DTD/svg10.dtd">
<svg version="1.0" xmlns="http://www.w3.org/2000/svg"
 width="1280.000000pt" height="640.000000pt" viewBox="0 0 1280.000000 640.000000"
 preserveAspectRatio="xMidYMid meet">
<metadata>
Created by potrace 1.15, written by Peter Selinger 2001-2017
</metadata>
<g transform="translate(0.000000,640.000000) scale(0.100000,-0.100000)"
fill="#000000" stroke="none">
<path d="M2078 4760 c-369 -39 -717 -188 -950 -408 -127 -120 -161 -186 -138
-271 19 -73 39 -72 207 4 80 36 146 65 147 63 2 -2 15 -113 30 -248 15 -135
28 -251 29 -258 2 -11 -27 -15 -128 -19 -170 -6 -366 -28 -477 -54 -48 -11
-91 -19 -96 -17 -4 2 -3 143 2 314 l8 310 44 12 c54 15 60 32 46 139 -11 83
-25 103 -71 103 -14 0 -151 -14 -304 -29 -337 -35 -322 -29 -313 -146 9 -105
22 -125 84 -125 l47 0 89 -354 88 -354 -64 -64 c-36 -34 -80 -90 -99 -122 -31
-54 -37 -59 -74 -63 -77 -8 -144 -71 -171 -159 -30 -99 -8 -199 59 -268 44
-46 109 -73 151 -62 18 4 26 -6 61 -82 22 -48 66 -127 98 -176 32 -48 57 -91
55 -96 -2 -4 -97 -123 -213 -264 -116 -141 -212 -261 -213 -266 -2 -6 106 -10
302 -10 181 0 306 4 306 9 0 16 20 165 26 189 4 20 9 15 34 -36 39 -76 121
-154 207 -195 64 -30 75 -32 178 -32 101 1 115 3 175 31 93 44 162 111 205
198 37 74 59 176 48 227 -5 28 -4 29 35 29 40 0 41 -1 58 -53 122 -374 522
-543 874 -369 137 67 259 213 306 364 l18 58 94 0 c85 0 95 -2 112 -23 17 -21
25 -22 148 -22 121 0 132 2 154 23 23 21 31 22 220 22 l196 0 4 -88 c5 -113
43 -198 122 -278 230 -229 620 -134 716 175 11 35 20 87 20 117 l0 54 124 0
123 0 7 -77 c12 -152 104 -287 239 -352 277 -135 598 51 620 359 l5 65 338 3
c293 2 343 0 372 -14 26 -12 59 -15 149 -12 105 3 116 5 133 26 18 21 23 22
218 22 l200 0 4 -88 c3 -72 10 -99 35 -154 82 -174 270 -276 456 -247 214 34
367 214 367 431 l0 58 125 0 125 0 0 -64 c0 -125 68 -267 163 -339 219 -167
533 -94 654 150 32 65 37 86 41 164 l4 89 240 0 c237 0 240 0 258 -22 17 -22
25 -23 148 -23 121 0 132 2 154 22 24 23 26 23 342 23 299 0 318 -1 311 -18
-4 -9 -9 -51 -12 -92 -16 -222 138 -415 363 -453 179 -31 375 73 456 242 27
55 33 81 36 156 2 50 0 107 -6 128 l-10 37 145 0 145 0 -6 -25 c-46 -184 36
-387 195 -482 217 -130 495 -49 609 177 48 96 58 182 34 298 l-6 32 146 0
c135 0 148 2 167 21 16 16 19 28 14 52 -4 18 -6 55 -5 84 1 57 -22 93 -60 93
-20 0 -20 7 -20 316 l0 316 30 28 c32 30 37 57 19 93 -18 33 -28 37 -106 37
l-73 0 -2 348 -3 347 -507 3 -508 2 0 170 0 170 -295 0 -295 0 0 -245 0 -245
-320 0 -320 0 0 -275 0 -275 -113 0 c-128 0 -144 -7 -153 -62 -5 -30 -2 -41
19 -62 16 -16 37 -26 54 -26 l28 0 0 -320 0 -320 -22 0 c-31 0 -56 -42 -51
-85 l4 -35 -104 0 c-95 0 -105 2 -122 22 -15 19 -29 22 -113 26 -114 5 -161
-2 -188 -29 -18 -18 -35 -20 -169 -22 l-148 -2 1 41 c3 63 -21 84 -95 84 l-58
0 0 940 0 940 49 0 c40 0 53 4 65 22 22 31 20 84 -4 108 -20 20 -33 20 -1199
20 l-1180 0 -15 -22 c-22 -31 -20 -91 2 -111 13 -12 37 -17 75 -17 l57 0 0
-940 0 -940 -43 0 c-63 0 -82 -18 -81 -77 l0 -48 -68 3 c-37 2 -68 8 -68 13 0
22 -71 39 -160 39 -107 0 -156 -16 -166 -54 l-6 -26 -268 0 c-226 0 -270 2
-280 15 -11 13 -6 15 33 15 37 0 49 5 66 26 44 55 16 158 -45 166 l-25 3 0
400 c0 220 -3 430 -7 468 -8 65 -7 67 14 67 39 0 69 33 69 78 0 64 -14 72
-120 72 l-92 0 -27 70 c-56 141 -155 257 -264 308 -49 23 -70 27 -148 27 -83
0 -96 -3 -153 -32 -57 -30 -64 -31 -85 -18 -12 8 -54 26 -92 39 -228 80 -452
52 -655 -81 -46 -29 -77 -43 -101 -43 -158 0 -324 -90 -408 -220 l-32 -50
-138 0 c-152 0 -157 -2 -167 -63 -7 -48 30 -87 83 -87 36 0 36 -1 30 -31 -3
-17 -6 -229 -6 -470 l0 -439 -39 0 c-31 0 -44 -6 -60 -26 -30 -38 -28 -104 3
-141 l24 -28 -77 3 c-60 3 -81 8 -99 25 -19 18 -39 22 -117 25 -113 5 -159 -2
-186 -29 -17 -17 -35 -21 -105 -22 l-84 -2 0 30 c0 17 4 66 10 110 24 193 60
618 70 827 16 325 1 563 -67 1031 l-6 37 47 0 c113 0 131 124 30 209 -46 38
-173 101 -264 131 -143 46 -374 67 -542 50z"/>
</g>
</svg>
